<?xml version="1.0" encoding="utf-8"?>
<svg id="master-artboard" viewBox="0 0 23.2 23.200000762939453" version="1.1" xmlns="http://www.w3.org/2000/svg" x="0px" y="0px" style="enable-background:new 0 0 1400 980;" width="23.200000762939453px" height="23.200000762939453px"><rect id="ee-background" x="0" y="0" width="23.200000762939453" height="23.200000762939453" style="fill: white; fill-opacity: 0; pointer-events: none;" transform="matrix(0.9910834431648254, 0, 0, 0.9953823089599609, -0.09697380661964417, -0.09470530599356408)"/><g id="g-1" transform="matrix(0.229999999398591, 0, 0, 0.23000000417232513, -138.35192276751036, -10.568503379821777)">
	<g id="g-2">
		<path class="st0" d="M652,46c27.6,0,50,22.4,50,50s-22.4,50-50,50s-50-22.4-50-50S624.4,46,652,46z" style="fill: rgb(245, 133, 22);"/>
	</g>
</g><g transform="matrix(0.019028425216674805, 0, 0, 0.019110962748527527, 5.841302871704102, 4.792081832885742)"><path class="fil0" d="M629 0l-268 337 0 305 99 0c37,0 68,38 70,75l-431 0c2,-37 33,-75 70,-75l99 0 0 -305 -268 -337 629 0z" style="fill: rgb(255, 255, 255);"/></g></svg>