<?xml version="1.0" encoding="utf-8"?>
<svg id="master-artboard" viewBox="0 0 23.2 23.200000762939453" version="1.1" xmlns="http://www.w3.org/2000/svg" x="0px" y="0px" style="enable-background:new 0 0 1400 980;" width="23.200000762939453px" height="23.200000762939453px"><rect id="ee-background" x="0" y="0" width="23.200000762939453" height="23.200000762939453" style="fill: white; fill-opacity: 0; pointer-events: none;" transform="matrix(0.9910834431648254, 0, 0, 0.9953823089599609, -0.12284994125366211, -0.08427569443756511)"/><g id="g-1" transform="matrix(0.229999999398591, 0, 0, 0.23000000417232513, -138.37780167376036, -10.558073997497559)">
	<g id="g-2">
		<path class="st0" d="M652,46c27.6,0,50,22.4,50,50s-22.4,50-50,50s-50-22.4-50-50S624.4,46,652,46z" style="fill: rgb(245, 133, 22);"/>
	</g>
</g><path d="M37 7h-28v27c0 2.2 1.8 4 4 4h20c2.2 0 4-1.8 4-4v-5c6.076 0 11-4.925 11-11s-4.924-11-11-11zm0 17v-12c3.314 0 6 2.686 6 6 0 3.313-2.686 6-6 6zm-35 16v2.301c0 1.896 2.069 2.699 4.6 2.699h36.8c2.53 0 4.6-.803 4.6-2.699v-2.301h-46z" style="fill: rgb(255, 255, 255);" transform="matrix(0.3070601522922516, 0, 0, 0.279992938041687, 3.79609751701355, 3.838919162750244)"/></svg>