<?xml version="1.0" encoding="utf-8"?>
<svg id="master-artboard" viewBox="0 0 23.2 23.200000762939453" version="1.1" xmlns="http://www.w3.org/2000/svg" x="0px" y="0px" style="enable-background:new 0 0 1400 980;" width="23.200000762939453px" height="23.200000762939453px"><rect id="ee-background" x="0" y="0" width="23.200000762939453" height="23.200000762939453" style="fill: white; fill-opacity: 0; pointer-events: none;" transform="matrix(0.9830781817436218, 0, 0, 0.9904831647872925, -0.09844309836626053, -0.06638728082180023)"/><g id="g-1" transform="matrix(0.22999982910566252, -0.00027313397808976896, 0.00026906529092229903, 0.2299998551607132, -138.38042875212489, -10.362832721846688)">
	<g id="g-2">
		<path class="st0" d="M652,46c27.6,0,50,22.4,50,50s-22.4,50-50,50s-50-22.4-50-50S624.4,46,652,46z" style="fill: rgb(245, 133, 22);"/>
	</g>
</g><g transform="matrix(0.2536855638027191, 0, 0, 0.255596399307251, 0.6842952530304842, 0.6064591407775879)"><path d="M51.171,34.25C52.211,35.329 53.67,36 55.285,36C56.32,36 57.292,35.724 58.129,35.242L44.261,72.374C44.064,72.9 43.562,73.249 43,73.249C42.438,73.249 41.936,72.9 41.739,72.374L27.871,35.242C28.708,35.724 29.68,36 30.715,36C32.298,36 33.731,35.355 34.766,34.314C35.801,35.355 37.235,36 38.818,36C40.375,36 41.788,35.376 42.819,34.364C43.85,35.376 45.263,36 46.82,36C48.435,36 49.894,35.329 50.934,34.25L51.171,34.25Z" style="fill: rgb(255, 255, 255);"/></g><path d="M27.988,25.588C28.212,17.5 35.029,11 43.394,11C51.584,11 58.29,17.231 58.777,25.084C60.126,26.087 61,27.692 61,29.5C61,32.536 58.536,35 55.5,35C53.886,35 52.433,34.303 51.426,33.194C50.42,34.303 48.967,35 47.353,35C45.854,35 44.494,34.399 43.502,33.425C42.51,34.399 41.15,35 39.651,35C38.128,35 36.748,34.379 35.752,33.377C34.756,34.379 33.376,35 31.853,35C28.817,35 26.353,32.536 26.353,29.5C26.353,27.97 26.979,26.586 27.988,25.588Z" style="fill: rgb(255, 255, 255);" transform="matrix(0.2610068917274475, 0, 0, 0.26624709367752075, 0.19291570782661438, -0.02188116684555297)"/></svg>