<?xml version="1.0" encoding="utf-8"?>
<svg id="master-artboard" viewBox="0 0 23.151100158691406 23.150697708129883" version="1.1" xmlns="http://www.w3.org/2000/svg" x="0px" y="0px" style="enable-background:new 0 0 1400 980;" width="23.151100158691406px" height="23.150697708129883px"><g transform="matrix(0.02348361418766043, 0, 0, 0.02354065418963791, -4.744040179073636, 0.023906006344333264)"><g transform="matrix(42.203182220458984, 0, 0, 42.203182220458984, 206.30921936035168, 0.000005958638666925253)"><rect id="ee-background" x="0" y="0" width="23.151100158691406" height="23.150697708129883" style="fill: white; fill-opacity: 0; pointer-events: none;"/><g transform="matrix(0.23000003397464752, 0, 0, 0.23000003397464752, -138.2530975341797, -10.473305702209473)"><g id="g-1" transform="matrix(1, 0, 0, 1, 0, 0)">
	<g id="g-2">
		<path class="st0" d="M652,46c27.6,0,50,22.4,50,50s-22.4,50-50,50s-50-22.4-50-50S624.4,46,652,46z" style="fill: rgb(245, 133, 22);"/>
	</g>
</g></g><g transform="matrix(0.3327096402645111, 0, 0, 0.3327096402645111, 3.478992531867135, 3.292759383633083)"><path d="M22 1.932v11.068h-2v-11c0-.552-.448-1-1-1s-1 .448-1 1v11h-2v-11.036c0-1.287-2-1.243-2-.033v11.069h-2v-10.99c0-1.363-2-1.313-2-.054v14.472c0 2.087 2 3.463 4 3.463v26.109c0 4 6 4 6 0v-26.108c2 0 4-1.662 4-3.227v-14.701c0-1.275-2-1.226-2-.032zm9 3.068v25h2v16c0 4 7 4 7 0v-41c0-5-9-5-9 0z" style="fill: rgb(255, 255, 255);"/></g></g></g></svg>