<?xml version="1.0" encoding="utf-8"?>
<svg id="master-artboard" viewBox="0 0 23.395902633666992 23.220998764038086" version="1.1" xmlns="http://www.w3.org/2000/svg" x="0px" y="0px" style="enable-background:new 0 0 850.4 1133.9;" width="23.395902633666992px" height="23.220998764038086px"><rect id="ee-background" x="0" y="0" width="23.395902633666992" height="23.220998764038086" style="fill: white; fill-opacity: 0; pointer-events: none;"/><g transform="matrix(0.23000003397464752, 0, 0, 0.23000003397464752, -138.2530975341797, -10.473305702209473)"><g id="g-1" transform="matrix(1, 0, 0, 1, 0, 0)">
	<g id="g-2">
		<path class="st0" d="M652,46c27.6,0,50,22.4,50,50s-22.4,50-50,50s-50-22.4-50-50S624.4,46,652,46z" style="fill: rgb(208, 23, 48);"/>
	</g>
</g></g><g transform="matrix(0.967541774113973, 0, 0, 0.967541774113973, 0.08744947383399904, -0.0000015073061376824626)"><path d="M0 0h24v24H0z" fill="none"/></g><g transform="matrix(0.17782436333872984, -0.007199102545632259, 0.007199102545632259, 0.17782436333872984, 2.688567429712215, 3.6218695116949142)"><path d="M71.5,12C56.4,12,50,22.7,50,22.7S43.6,12,28.5,12C15.7,12,5,22.7,5,35.4C5,64.6,50,88,50,88s45-23.4,45-52.6  C95,22.7,84.3,12,71.5,12z" style="fill: rgb(255, 255, 255);"/></g></svg>