<?xml version="1.0" encoding="utf-8"?>
<svg id="master-artboard" viewBox="0 0 23.395902633666992 23.220998764038086" version="1.1" xmlns="http://www.w3.org/2000/svg" x="0px" y="0px" style="enable-background:new 0 0 850.4 1133.9;" width="23.395902633666992px" height="23.220998764038086px"><rect id="ee-background" x="0" y="0" width="23.395902633666992" height="23.220998764038086" style="fill: white; fill-opacity: 0; pointer-events: none;"/><g transform="matrix(0.23000003397464752, 0, 0, 0.23000003397464752, -138.2530975341797, -10.473305702209473)"><g id="g-1" transform="matrix(1, 0, 0, 1, 0, 0)">
	<g id="g-2">
		<path class="st0" d="M652,46c27.6,0,50,22.4,50,50s-22.4,50-50,50s-50-22.4-50-50S624.4,46,652,46z" style="fill: rgb(194, 194, 194);"/>
	</g>
</g></g><g transform="matrix(0.019199619069695473, 0, 0, 0.019199619069695473, 5.991702079772949, 4.909457753272164)"><g><path class="fil0" d="M629 0l-268 337 0 305 99 0c37,0 68,38 70,75l-431 0c2,-37 33,-75 70,-75l99 0 0 -305 -268 -337 629 0z" style="fill: rgb(255, 255, 255);"/></g></g></svg>