<?xml version="1.0" encoding="utf-8"?>
<svg id="master-artboard" viewBox="0 0 23.395902633666992 23.220998764038086" version="1.1" xmlns="http://www.w3.org/2000/svg" x="0px" y="0px" style="enable-background:new 0 0 850.4 1133.9;" width="23.395902633666992px" height="23.220998764038086px"><rect id="ee-background" x="0" y="0" width="23.395902633666992" height="23.220998764038086" style="fill: white; fill-opacity: 0; pointer-events: none;"/><g transform="matrix(0.23000003397464752, 0, 0, 0.23000003397464752, -138.2530975341797, -10.473305702209473)"><g id="g-1" transform="matrix(1, 0, 0, 1, 0, 0)">
	<g id="g-2">
		<path class="st0" d="M652,46c27.6,0,50,22.4,50,50s-22.4,50-50,50s-50-22.4-50-50S624.4,46,652,46z" style="fill: rgb(194, 194, 194);"/>
	</g>
</g></g><g transform="matrix(0.3098227083683014, 0, 0, 0.2812918424606323, 3.9542055130004883, 3.9413950443267787)"><path d="M37 7h-28v27c0 2.2 1.8 4 4 4h20c2.2 0 4-1.8 4-4v-5c6.076 0 11-4.925 11-11s-4.924-11-11-11zm0 17v-12c3.314 0 6 2.686 6 6 0 3.313-2.686 6-6 6zm-35 16v2.301c0 1.896 2.069 2.699 4.6 2.699h36.8c2.53 0 4.6-.803 4.6-2.699v-2.301h-46z" style="fill: rgb(255, 255, 255);"/></g></svg>