<?xml version="1.0" encoding="utf-8"?>
<svg id="master-artboard" viewBox="0 0 23.395902633666992 23.220998764038086" version="1.1" xmlns="http://www.w3.org/2000/svg" x="0px" y="0px" style="enable-background:new 0 0 850.4 1133.9;" width="23.395902633666992px" height="23.220998764038086px"><rect id="ee-background" x="0" y="0" width="23.395902633666992" height="23.220998764038086" style="fill: white; fill-opacity: 0; pointer-events: none;"/><g transform="matrix(0.23000003397464752, 0, 0, 0.23000003397464752, -138.2530975341797, -10.473305702209473)"><g id="g-1" transform="matrix(1, 0, 0, 1, 0, 0)">
	<g id="g-2">
		<path class="st0" d="M652,46c27.6,0,50,22.4,50,50s-22.4,50-50,50s-50-22.4-50-50S624.4,46,652,46z" style="fill: rgb(194, 194, 194);"/>
	</g>
</g></g><g transform="matrix(0.2580522894859314, 0, 0, 0.2580522894859314, 0.7507007470584384, 0.42125907540320995)"><g transform="matrix(1,0,0,1,0.176363,1)"><path d="M51.171,34.25C52.211,35.329 53.67,36 55.285,36C56.32,36 57.292,35.724 58.129,35.242L44.261,72.374C44.064,72.9 43.562,73.249 43,73.249C42.438,73.249 41.936,72.9 41.739,72.374L27.871,35.242C28.708,35.724 29.68,36 30.715,36C32.298,36 33.731,35.355 34.766,34.314C35.801,35.355 37.235,36 38.818,36C40.375,36 41.788,35.376 42.819,34.364C43.85,35.376 45.263,36 46.82,36C48.435,36 49.894,35.329 50.934,34.25L51.171,34.25Z" style="fill: rgb(255, 255, 255);"/></g><g transform="matrix(1.02886,0,0,1.04167,-1.7606,-1.45833)"><path d="M27.988,25.588C28.212,17.5 35.029,11 43.394,11C51.584,11 58.29,17.231 58.777,25.084C60.126,26.087 61,27.692 61,29.5C61,32.536 58.536,35 55.5,35C53.886,35 52.433,34.303 51.426,33.194C50.42,34.303 48.967,35 47.353,35C45.854,35 44.494,34.399 43.502,33.425C42.51,34.399 41.15,35 39.651,35C38.128,35 36.748,34.379 35.752,33.377C34.756,34.379 33.376,35 31.853,35C28.817,35 26.353,32.536 26.353,29.5C26.353,27.97 26.979,26.586 27.988,25.588Z" style="fill: rgb(255, 255, 255);"/></g></g></svg>