<?xml version="1.0" encoding="utf-8"?>
<svg id="master-artboard" viewBox="0 0 23.395902633666992 23.220998764038086" version="1.1" xmlns="http://www.w3.org/2000/svg" x="0px" y="0px" style="enable-background:new 0 0 850.4 1133.9;" width="23.395902633666992px" height="23.220998764038086px"><rect id="ee-background" x="0" y="0" width="23.395902633666992" height="23.220998764038086" style="fill: white; fill-opacity: 0; pointer-events: none;"/><g transform="matrix(0.23000003397464752, 0, 0, 0.23000003397464752, -138.2530975341797, -10.473305702209473)"><g id="g-1" transform="matrix(1, 0, 0, 1, 0, 0)">
	<g id="g-2">
		<path class="st0" d="M652,46c27.6,0,50,22.4,50,50s-22.4,50-50,50s-50-22.4-50-50S624.4,46,652,46z" style="fill: rgb(0, 160, 35);"/>
	</g>
</g></g><g transform="matrix(0.967541774113973, 0, 0, 0.967541774113973, 0.08744947383399904, -0.0000015073061376824626)"><path d="M0 0h24v24H0z" fill="none"/></g><g transform="matrix(0.16103231906890872, 0, 0, 0.16103231906890872, 3.8945070010138707, 3.082947969436649)"><path d="M39.456,72.67l-9.908,21.081c-1.166,2.48-4.121,3.546-6.601,2.38c-2.424-1.139-3.493-3.997-2.452-6.44l9.158-21.419  c1.167-2.728,4.324-3.994,7.053-2.827c2.728,1.166,3.994,4.324,2.827,7.052C39.512,72.548,39.479,72.619,39.456,72.67z" style="fill: rgb(255, 255, 255);"/><path d="M30.41,17.534c-1.325-0.982-3.154-0.66-4.062,0.718l-3.175,4.809c-0.909,1.377-1.598,3.854-1.53,5.502l0.985,24.281  c0.067,1.648,1.472,3.008,3.122,3.021l0.897,0.008c1.65,0.014,3.371-1.274,3.824-2.861l7.527-26.358  c0.453-1.587-0.261-3.688-1.586-4.671L30.41,17.534z" style="fill: rgb(255, 255, 255);"/><g><path d="M52.213,21.844c4.929,0.279,9.201-3.743,9.335-8.795c0.134-5.061-3.848-9.301-8.798-9.354   c-4.917-0.057-9.109,4.157-9.087,9.131C43.684,17.573,47.482,21.574,52.213,21.844z" style="fill: rgb(255, 255, 255);"/><path d="M78.258,43.087L49.553,25.238c-0.178-0.108-0.392-0.227-0.586-0.318c-2.814-1.32-6.161-0.129-7.517,2.66   c-0.671,0.79-1.185,1.733-1.462,2.804L34.2,52.709c-0.243,0.936-0.285,1.877-0.156,2.777c-0.349,2.149,0.438,4.419,2.262,5.873   l15.983,12.741v17.62c0,2.739,2.222,4.961,4.961,4.961s4.961-2.222,4.961-4.961v-20c-0.004-1.26-0.487-2.532-1.449-3.492   l-0.209-0.209L48.096,55.586l4.282-16.519l20.724,9.724l-2.724,45.553c-0.07,1.172,0.823,2.179,1.995,2.249   c0.043,0.003,0.086,0.004,0.129,0.004c1.116,0,2.053-0.87,2.12-1.999l2.68-44.826c0.858-0.24,1.634-0.785,2.142-1.602   C80.52,46.438,79.989,44.163,78.258,43.087z" style="fill: rgb(255, 255, 255);"/></g></g></svg>