<?xml version="1.0" encoding="utf-8"?>
<svg id="master-artboard" viewBox="0 0 24.7 24.690505981445312" xmlns="http://www.w3.org/2000/svg" width="24.700000762939453px" height="24.690505981445312px" version="1.1" style="shape-rendering:geometricPrecision; text-rendering:geometricPrecision; image-rendering:optimizeQuality; fill-rule:evenodd; clip-rule:evenodd"><rect id="ee-background" x="0" y="0" width="24.700000762939453" height="24.690505981445312" style="fill: white; fill-opacity: 0; pointer-events: none;" transform="matrix(1, 0, 0, 1, 0, 4)"/><g transform="matrix(0.23000003397464752, 0, 0, 0.23000003397464752, -137.66664838790894, -9.786629736423492)"><g id="Layer_2" transform="matrix(1, 0, 0, 1, 0, 0)">
	<g id="Layer_1-2">
		<path class="st0" d="M652,46c27.6,0,50,22.4,50,50s-22.4,50-50,50s-50-22.4-50-50S624.4,46,652,46z" style="fill: rgb(115, 145, 255);"/>
	</g>
</g></g><g transform="matrix(0.2888668179512024, 0, 0, 0.21665021777153015, 3.564706325531006, 3.255215644836426)"><path d="M9.27 19h3.916l.602 18h-5.039l.521-18zm-3.27 19h38v2h3v3h2v2h-48v-2h2v-3h3v-2zm40-24.188l-20.998-8.812-21.002 8.812v1.188h42v-1.188zm-38 2.188h34v2h-34v-2zm28.736 3h3.914l.607 18h-5.046l.525-18zm-9.152 0h3.914l.6 18h-5.041l.527-18zm-9.154 0h3.915l.596 18h-5.039l.528-18z" transform="matrix(1.25, 0, 0, 1.5, -0.25, -2.5)" style="fill: rgb(255, 255, 255);"/></g></svg>