<?xml version="1.0" encoding="utf-8"?>
<svg id="master-artboard" viewBox="0 0 23.395902633666992 23.220998764038086" version="1.1" xmlns="http://www.w3.org/2000/svg" x="0px" y="0px" style="enable-background:new 0 0 850.4 1133.9;" width="23.395902633666992px" height="23.220998764038086px"><rect id="ee-background" x="0" y="0" width="23.395902633666992" height="23.220998764038086" style="fill: white; fill-opacity: 0; pointer-events: none;"/><g transform="matrix(0.23000003397464752, 0, 0, 0.23000003397464752, -138.250732421875, -10.568286895751953)"><g id="g-1" transform="matrix(1, 0, 0, 1, 0, 0)">
	<g id="g-2">
		<path class="st0" d="M652,46c27.6,0,50,22.4,50,50s-22.4,50-50,50s-50-22.4-50-50S624.4,46,652,46z" style="fill: rgb(0, 0, 0);"/>
	</g>
</g></g><g transform="matrix(1.9638969898223877, 0, 0, 1.9638969898223877, -11.176840508892482, -11.484108924865719)"><g transform="matrix(0.3501493036746979, 0, 0, 0.3501493036746979, 7.496160507202148, 7.507492065429684)"><path d="M0 0h24v24H0z" fill="none"/></g><g transform="matrix(0.3501493036746979, 0, 0, 0.3501493036746979, 7.496160507202148, 7.507492065429684)"><path d="M 15.2 12 A 3.2 3.2 0 0 1 12 15.2 A 3.2 3.2 0 0 1 8.8 12 A 3.2 3.2 0 0 1 12 8.8 A 3.2 3.2 0 0 1 15.2 12 Z" style="fill: rgb(255, 255, 255);"/><path d="M9 2L7.17 4H4c-1.1 0-2 .9-2 2v12c0 1.1.9 2 2 2h16c1.1 0 2-.9 2-2V6c0-1.1-.9-2-2-2h-3.17L15 2H9zm3 15c-2.76 0-5-2.24-5-5s2.24-5 5-5 5 2.24 5 5-2.24 5-5 5z" style="fill: rgb(255, 255, 255);"/><path d="M0 0h24v24H0z" fill="none"/></g></g></svg>